<?xml version="1.0" standalone="no"?>
<!DOCTYPE svg PUBLIC "-//W3C//DTD SVG 20010904//EN"
 "http://www.w3.org/TR/2001/REC-SVG-20010904/DTD/svg10.dtd">
<svg version="1.0" xmlns="http://www.w3.org/2000/svg"
 width="512.000000pt" height="512.000000pt" viewBox="0 0 512.000000 512.000000"
 preserveAspectRatio="xMidYMid meet">

<g transform="translate(0.000000,512.000000) scale(0.100000,-0.100000)"
fill="#000000" stroke="none">
<path d="M1553 1265 c-149 -40 -260 -144 -303 -281 -82 -266 100 -532 375
-551 220 -16 405 132 447 355 40 215 -119 441 -341 482 -70 13 -114 12 -178
-5z m185 -246 c163 -79 117 -332 -63 -347 -72 -6 -98 2 -144 43 -51 46 -64 82
-59 154 3 45 11 68 32 96 55 71 151 93 234 54z"/>
<path d="M3633 1265 c-151 -41 -259 -142 -304 -284 -81 -262 102 -529 376
-548 220 -16 405 132 447 355 40 215 -119 441 -341 482 -70 13 -114 12 -178
-5z m185 -246 c163 -79 117 -332 -63 -347 -72 -6 -98 2 -144 43 -51 46 -64 82
-59 154 3 45 11 68 32 96 55 71 151 93 234 54z"/>
</g>
</svg>
